<svg id="レイヤー_1" data-name="レイヤー 1" xmlns="http://www.w3.org/2000/svg" viewBox="0 0 197.81 197.82"><defs><style>.cls-1{fill:#333;}</style></defs><title>hatenablog-logo</title><path class="cls-1" d="M150,248.91A98.91,98.91,0,1,1,248.91,150,99,99,0,0,1,150,248.91Zm0-185.24A86.33,86.33,0,1,0,236.34,150,86.43,86.43,0,0,0,150,63.67Zm11.52,37.49a139.53,139.53,0,0,1-9.27-24.85v70.05a6.46,6.46,0,1,1-4.13-.11v-70a139.6,139.6,0,0,1-9.29,24.92,252.91,252.91,0,0,1-17,28.82l6,82.6s5.74,6.4,22.31,6.41h0c16.57,0,22.31-6.41,22.31-6.41l6-82.6a251.89,251.89,0,0,1-17-28.82Z" transform="translate(-51.09 -51.09)"/></svg>